<svg xmlns="http://www.w3.org/2000/svg" viewBox="80 181.38 558.94998046875 191.54500064849856"> <svg xmlns="http://www.w3.org/2000/svg" id="Layer_1" dataName="Layer 1" viewBox="151 171.80999755859375 698.0040893554688 657.1900024414062" height="49.891542877759115" width="52.99003982543945" y="251.38" x="150" preserveAspectRatio="xMinYMin" style="overflow: visible;"><path d="M849,171.81V303.75a16.28,16.28,0,0,1-5,12.11L729.71,430.5A90,90,0,0,1,666,456.65H653.32V568.31a11.21,11.21,0,0,1-3.4,8.33l-78.66,78.89a62,62,0,0,1-43.86,18H292.9v20a29.23,29.23,0,0,1-8.16,20.27L182.74,820a29.26,29.26,0,0,1-21.11,9H151V530.56a11.91,11.91,0,0,0,12.16,11.05H527.4a61.94,61.94,0,0,0,43.86-18l66.77-67H248.92l-95.19,68.69a6.74,6.74,0,0,0-2.7,5.22V307.73a17.3,17.3,0,0,0,17.67,16.14H666a90.05,90.05,0,0,0,63.73-26.15L844,183.08A16.35,16.35,0,0,0,849,171.81Z" style="fill: #0f5cde; fill-opacity: 1;"></path></svg> <svg y="274.01500080108644" viewBox="3.950000047683716 -0.10999999940395355 352.97998046875 28.90999984741211" x="215.97" height="28.90999984741211" width="352.97998046875" style="overflow: visible;"><g fill="#0f5cde" fill-opacity="1" style=""><path d="M3.95 28.50L3.95 1.03L20.25 1.03L20.25 4.56L7.64 4.56L7.64 13.34L18.70 13.34L18.70 16.83L7.64 16.83L7.64 28.50L3.95 28.50ZM26.33 28.50L26.33 1.03L30.02 1.03L30.02 28.50L26.33 28.50ZM37.92 1.03L45.22 1.03Q47.31 1.03 49.08 1.58Q50.84 2.13 52.15 3.21Q53.47 4.29 54.21 5.87Q54.95 7.45 54.95 9.54L54.95 9.54Q54.95 11.17 54.47 12.73Q54.00 14.29 52.90 15.56Q51.79 16.83 50.03 17.61Q48.26 18.39 45.68 18.39L45.68 18.39L41.61 18.39L41.61 28.50L37.92 28.50L37.92 1.03ZM41.61 14.86L45.60 14.86Q47.23 14.86 48.32 14.36Q49.40 13.87 50.01 13.09Q50.62 12.31 50.88 11.40Q51.15 10.49 51.15 9.69L51.15 9.69Q51.15 8.85 50.86 7.96Q50.58 7.07 49.95 6.31Q49.32 5.55 48.32 5.05Q47.31 4.56 45.87 4.56L45.87 4.56L41.61 4.56L41.61 14.86ZM45.75 17.06L50.12 16.95L57.30 28.50L53.05 28.50L45.75 17.06ZM78.58 3.08L77.18 5.93Q75.77 5.21 74.10 4.67Q72.43 4.14 70.83 4.14L70.83 4.14Q68.63 4.14 67.32 5.17Q66.01 6.19 66.01 7.90L66.01 7.90Q66.01 9.20 66.84 10.09Q67.68 10.98 69.05 11.63Q70.41 12.27 71.90 12.84L71.90 12.84Q73.19 13.34 74.44 13.95Q75.70 14.55 76.70 15.47Q77.71 16.38 78.30 17.71Q78.89 19.04 78.89 21.01L78.89 21.01Q78.89 23.18 77.80 24.97Q76.72 26.75 74.71 27.78Q72.69 28.80 69.92 28.80L69.92 28.80Q68.10 28.80 66.44 28.39Q64.79 27.97 63.38 27.30Q61.98 26.64 60.88 25.92L60.88 25.92L62.51 23.03Q63.42 23.67 64.60 24.26Q65.78 24.85 67.07 25.21Q68.36 25.57 69.58 25.57L69.58 25.57Q70.87 25.57 72.14 25.10Q73.42 24.62 74.25 23.64Q75.09 22.65 75.09 21.01L75.09 21.01Q75.09 19.61 74.35 18.68Q73.61 17.75 72.39 17.08Q71.17 16.42 69.81 15.88L69.81 15.88Q68.51 15.39 67.18 14.80Q65.85 14.21 64.71 13.36Q63.57 12.50 62.89 11.25Q62.21 9.99 62.21 8.21L62.21 8.21Q62.21 6.04 63.25 4.43Q64.30 2.81 66.12 1.88Q67.94 0.95 70.30 0.87L70.30 0.87Q72.96 0.87 74.99 1.52Q77.03 2.17 78.58 3.08L78.58 3.08ZM82.88 4.56L82.88 1.03L101.12 1.03L101.12 4.56L93.75 4.56L93.75 28.50L90.06 28.50L90.06 4.56L82.88 4.56ZM134.60 3.08L133.19 5.93Q131.78 5.21 130.11 4.67Q128.44 4.14 126.84 4.14L126.84 4.14Q124.64 4.14 123.33 5.17Q122.02 6.19 122.02 7.90L122.02 7.90Q122.02 9.20 122.85 10.09Q123.69 10.98 125.06 11.63Q126.43 12.27 127.91 12.84L127.91 12.84Q129.20 13.34 130.45 13.95Q131.71 14.55 132.72 15.47Q133.72 16.38 134.31 17.71Q134.90 19.04 134.90 21.01L134.90 21.01Q134.90 23.18 133.82 24.97Q132.73 26.75 130.72 27.78Q128.71 28.80 125.93 28.80L125.93 28.80Q124.11 28.80 122.45 28.39Q120.80 27.97 119.40 27.30Q117.99 26.64 116.89 25.92L116.89 25.92L118.52 23.03Q119.43 23.67 120.61 24.26Q121.79 24.85 123.08 25.21Q124.37 25.57 125.59 25.57L125.59 25.57Q126.88 25.57 128.16 25.10Q129.43 24.62 130.26 23.64Q131.10 22.65 131.10 21.01L131.10 21.01Q131.10 19.61 130.36 18.68Q129.62 17.75 128.40 17.08Q127.19 16.42 125.82 15.88L125.82 15.88Q124.53 15.39 123.20 14.80Q121.87 14.21 120.73 13.36Q119.59 12.50 118.90 11.25Q118.22 9.99 118.22 8.21L118.22 8.21Q118.22 6.04 119.26 4.43Q120.31 2.81 122.13 1.88Q123.96 0.95 126.31 0.87L126.31 0.87Q128.97 0.87 131.00 1.52Q133.04 2.17 134.60 3.08L134.60 3.08ZM138.89 4.56L138.89 1.03L157.13 1.03L157.13 4.56L149.76 4.56L149.76 28.50L146.07 28.50L146.07 4.56L138.89 4.56ZM162.98 28.50L162.98 1.03L180.84 1.03L180.84 4.56L166.67 4.56L166.67 12.92L179.32 12.92L179.32 16.45L166.67 16.45L166.67 24.97L181.37 24.97L181.37 28.50L162.98 28.50ZM187.76 1.03L195.09 1.03Q198.09 1.03 200.22 2.03Q202.35 3.04 203.51 4.94Q204.67 6.84 204.67 9.54L204.67 9.54Q204.67 11.17 204.17 12.75Q203.68 14.33 202.60 15.60Q201.51 16.87 199.77 17.63Q198.02 18.39 195.51 18.39L195.51 18.39L191.44 18.39L191.44 28.50L187.76 28.50L187.76 1.03ZM191.44 14.86L195.47 14.86Q197.11 14.86 198.17 14.33Q199.23 13.79 199.84 12.98Q200.45 12.16 200.72 11.25Q200.98 10.34 200.98 9.61L200.98 9.61Q200.98 8.78 200.72 7.89Q200.45 6.99 199.82 6.25Q199.20 5.51 198.19 5.04Q197.18 4.56 195.70 4.56L195.70 4.56L191.44 4.56L191.44 14.86ZM222.38 28.50L222.38 1.03L226.06 1.03L226.06 28.50L222.38 28.50ZM237.54 28.50L233.97 28.50L233.97 0.15L234.00 0.15L248.41 20.60L246.85 20.29L261.21 0.15L261.29 0.15L261.29 28.50L257.64 28.50L257.64 8.51L257.87 10.37L247.49 25.04L247.42 25.04L236.89 10.37L237.54 8.66L237.54 28.50ZM269.19 1.03L276.53 1.03Q279.53 1.03 281.66 2.03Q283.78 3.04 284.94 4.94Q286.10 6.84 286.10 9.54L286.10 9.54Q286.10 11.17 285.61 12.75Q285.11 14.33 284.03 15.60Q282.95 16.87 281.20 17.63Q279.45 18.39 276.94 18.39L276.94 18.39L272.88 18.39L272.88 28.50L269.19 28.50L269.19 1.03ZM272.88 14.86L276.91 14.86Q278.54 14.86 279.60 14.33Q280.67 13.79 281.28 12.98Q281.88 12.16 282.15 11.25Q282.42 10.34 282.42 9.61L282.42 9.61Q282.42 8.78 282.15 7.89Q281.88 6.99 281.26 6.25Q280.63 5.51 279.62 5.04Q278.62 4.56 277.13 4.56L277.13 4.56L272.88 4.56L272.88 14.86ZM290.05 28.50L286.44 28.50L298.45-0.11L298.68-0.11L310.65 28.50L306.43 28.50L297.46 5.66L300.09 3.95L290.05 28.50ZM292.41 21.28L293.47 18.09L303.70 18.09L304.91 21.28L292.41 21.28ZM332.96 23.18L334.51 26.45Q333.83 26.90 332.65 27.47Q331.47 28.04 329.90 28.42Q328.32 28.80 326.46 28.80L326.46 28.80Q323.27 28.77 320.70 27.66Q318.14 26.56 316.35 24.66Q314.56 22.76 313.59 20.27Q312.63 17.78 312.63 14.97L312.63 14.97Q312.63 11.89 313.63 9.29Q314.64 6.69 316.46 4.77Q318.29 2.85 320.78 1.79Q323.27 0.72 326.23 0.72L326.23 0.72Q328.70 0.72 330.71 1.39Q332.73 2.05 334.17 2.96L334.17 2.96L332.69 6.38Q331.55 5.62 329.93 4.94Q328.32 4.26 326.34 4.26L326.34 4.26Q324.33 4.26 322.54 5.05Q320.76 5.85 319.39 7.30Q318.02 8.74 317.24 10.66Q316.46 12.58 316.46 14.78L316.46 14.78Q316.46 17.02 317.17 18.94Q317.87 20.86 319.18 22.27Q320.49 23.67 322.35 24.47Q324.22 25.27 326.53 25.27L326.53 25.27Q328.62 25.27 330.26 24.62Q331.89 23.98 332.96 23.18L332.96 23.18ZM338.69 4.56L338.69 1.03L356.93 1.03L356.93 4.56L349.56 4.56L349.56 28.50L345.88 28.50L345.88 4.56L338.69 4.56Z" transform="translate(0, 0)"></path></g></svg></svg>